# xmcd
#
# Track frame offsets: 
#        150
#        23368
#        39926
#        57672
#        71152
#        93832
#        114366
#        128225
#        146550
#        164418
#        183844
#        200689
#        217110
#        231159
#        247550
#        265615
#        282404
#
# Disc length: 4034 seconds
#
# Revision: 0
# Processed by: cddbd v1.4PL0 Copyright (c) Steve Scherf et al.
# Submitted via: ExactAudioCopy v0.95a3
#
DISCID=ee0fc011
DTITLE=Various Artist - 爱情蒲公英(粤语篇)A
DYEAR=2002
DGENRE=Other
TTITLE0=李彩桦 叶文辉-I BELIEVE
TTITLE1=何韵诗 SHINE-劲爱你
TTITLE2=邓建明 黄丹仪-野孩子
TTITLE3=卢巧音-好心分手
TTITLE4=王杰-爱不起
TTITLE5=关心研-无话再讲
TTITLE6=黎明-你要懂得欺骗你自己
TTITLE7=彭羚-上海宝贝
TTITLE8=陈慧琳-再生花
TTITLE9=马浚伟-水中仙
TTITLE10=陈小春-一句到尾
TTITLE11=许志安-徒然
TTITLE12=TWINS-梨涡浅笑
TTITLE13=容祖儿-抱抱
TTITLE14=张柏芝-赌爱
TTITLE15=李庞怡-夜游杜拜
TTITLE16=王菲-给自己的情书
EXTD=
EXTT0=
EXTT1=
EXTT2=
EXTT3=
EXTT4=
EXTT5=
EXTT6=
EXTT7=
EXTT8=
EXTT9=
EXTT10=
EXTT11=
EXTT12=
EXTT13=
EXTT14=
EXTT15=
EXTT16=
PLAYORDER=
